<?xml version="1.0" encoding="utf-8"?><svg width="100px" height="21px" viewbox="0 0 100 21" version="1.1" xmlns:xlink="http://www.w3.org/1999/xlink" xmlns="http://www.w3.org/2000/svg"><defs><path d="M0 19.7719L100 19.7719L100 0L0 0L0 19.7719Z" transform="translate(0 0.3802281)" id="path_1" /><clipPath id="mask_1"><use xlink:href="#path_1" /></clipPath></defs><g id="Brand--GIANT-Text"><g id="GIANT-Text" transform="matrix(1 0 0 1 0 -8.881784E-15)"><path d="M9.66102 11.9235L13.7875 11.9235L13.7875 14.6199C12.6508 15.4001 11.3008 15.7969 9.92908 15.7541C6.62841 15.7541 4.28627 13.2197 4.28627 9.76511L4.28627 9.70992C4.28627 6.50001 6.65549 3.82532 9.63665 3.82532C11.8028 3.82532 13.07 4.52832 14.5105 5.74758L17.0909 2.58958C15.1495 0.91446 13.1242 1.1559e-05 9.78016 1.1559e-05C4.1238 -0.00822672 0 4.38827 0 9.76511L0 9.81729C0 15.4056 3.99113 19.5357 9.7937 19.5357C12.7158 19.5439 15.5427 18.4798 17.7516 16.5397L17.7516 8.33165L9.66102 8.33165L9.66102 11.9235Z" transform="translate(5.415371E-05 0.23620728)" id="Fill-1" fill="#323232" fill-rule="evenodd" stroke="none" /><path d="M0 19.7719L100 19.7719L100 0L0 0L0 19.7719Z" transform="translate(0 0.3802281)" id="Clip-5" fill="none" fill-rule="evenodd" stroke="none" /><g clip-path="url(#mask_1)"><path d="M0 19.0114L4.18251 19.0114L4.18251 0L0 0L0 19.0114Z" transform="translate(25.475286 0.7604562)" id="Fill-4" fill="#323232" fill-rule="evenodd" stroke="none" /><path d="M7.35685 11.1014L9.83443 4.98453L12.312 11.1014L7.35685 11.1014ZM7.99657 0L0 19.0004L4.1799 19.0004L5.89036 14.7809L13.7758 14.7809L15.4808 19.0114L19.7719 19.0114L11.7753 0.0109671L7.99657 0Z" transform="translate(35.741447 0.3802281)" id="Fill-6" fill="#323232" fill-rule="evenodd" stroke="none" /><path d="M12.644 11.7054L3.81783 0L0 0L0 19.0114L4.08877 19.0114L4.08877 6.92489L13.2078 19.0114L16.73 19.0114L16.73 0L12.644 0L12.644 11.7054Z" transform="translate(61.596962 0.7604562)" id="Fill-7" fill="#323232" fill-rule="evenodd" stroke="none" /><path d="M0 0L0 3.86031L5.72503 3.86031L5.72503 19.0114L9.86433 19.0114L9.86433 3.86031L15.5894 3.86031L15.5894 0L0 0Z" transform="translate(84.410645 0.7604562)" id="Fill-8" fill="#323232" fill-rule="evenodd" stroke="none" /></g></g></g></svg>